<?xml version="1.0" encoding="utf-8"?>
<!-- Generator: Adobe Illustrator 15.0.0, SVG Export Plug-In . SVG Version: 6.00 Build 0)  -->
<!DOCTYPE svg PUBLIC "-//W3C//DTD SVG 1.1//EN" "http://www.w3.org/Graphics/SVG/1.1/DTD/svg11.dtd">
<svg version="1.1" id="Layer_1" xmlns="http://www.w3.org/2000/svg" xmlns:xlink="http://www.w3.org/1999/xlink" x="0px" y="0px"
	 width="64px" height="64px" viewBox="0 0 64 64" enable-background="new 0 0 64 64" xml:space="preserve">
<linearGradient id="SVGID_1_" gradientUnits="userSpaceOnUse" x1="277.96" y1="-261.6602" x2="277.96" y2="-197.8102" gradientTransform="matrix(1 0 0 -1 -245.96 -197.6602)">
	<stop  offset="0" style="stop-color:#A5281A"/>
	<stop  offset="0" style="stop-color:#B53223"/>
	<stop  offset="0" style="stop-color:#C63D2C"/>
	<stop  offset="0" style="stop-color:#D14433"/>
	<stop  offset="0" style="stop-color:#D84937"/>
	<stop  offset="0" style="stop-color:#DA4A38"/>
</linearGradient>
<path fill="url(#SVGID_1_)" d="M64,56c0,4.418-3.582,8-8,8H8c-4.418,0-8-3.582-8-8V8c0-4.418,3.582-8,8-8h48c4.418,0,8,3.582,8,8V56
	z"/>
<defs>
	<filter id="Adobe_OpacityMaskFilter" filterUnits="userSpaceOnUse" x="-10.488" y="4" width="75.488" height="75.542">
		<feColorMatrix  type="matrix" values="1 0 0 0 0  0 1 0 0 0  0 0 1 0 0  0 0 0 1 0"/>
	</filter>
</defs>
<mask maskUnits="userSpaceOnUse" x="-10.488" y="4" width="75.488" height="75.542" id="SVGID_2_">
	<g filter="url(#Adobe_OpacityMaskFilter)">
		<path fill="#F5F5F5" d="M64,56c0,4.418-3.582,8-8,8H8c-4.418,0-8-3.582-8-8V8c0-4.418,3.582-8,8-8h48c4.418,0,8,3.582,8,8V56z"/>
	</g>
</mask>
<g opacity="0.5" mask="url(#SVGID_2_)">
	<g>
		<polygon fill="#FFFFFF" points="48.5,31.5 48.5,21.5 38.5,21.5 38.5,15.5 48.5,15.5 48.5,5.5 54.5,5.5 54.5,15.5 64.5,15.5 
			64.5,21.5 54.5,21.5 54.5,31.5 		"/>
		<path fill="#A5281A" d="M54,6v10h10v5H54v10h-5V21H39v-5h10V6H54 M55,5h-1h-5h-1v1v9h-9h-1v1v5v1h1h9v9v1h1h5h1v-1v-9h9h1v-1v-5
			v-1h-1h-9V6V5L55,5z"/>
	</g>
	<g>
		
			<linearGradient id="SVGID_3_" gradientUnits="userSpaceOnUse" x1="260.1787" y1="-203.2998" x2="260.1787" y2="-277.3007" gradientTransform="matrix(1 0 0 -1 -245.96 -197.6602)">
			<stop  offset="0" style="stop-color:#FFFFFF"/>
			<stop  offset="1" style="stop-color:#F9DAD6"/>
		</linearGradient>
		<path fill="url(#SVGID_3_)" d="M13.731,79.041c-13.744,0-23.719-5.809-23.719-13.813c0-8.443,8.803-17.484,21.908-17.484
			c0.693,0,1.356-0.01,2.011-0.018c0.239-0.004,0.477-0.008,0.714-0.011c-1.29-1.329-2.41-2.834-2.41-5.161
			c0-1.179,0.28-2.41,0.832-3.674c-0.466,0.023-0.88,0.034-1.283,0.034c-10.088,0-16.867-6.785-16.867-16.884
			c0-9.339,9.657-17.532,20.666-17.532h22.843l-5.796,6.083h-4.279c3.173,2.519,5.024,6.788,5.024,11.757
			c0,4.463-2.281,8.606-6.597,11.979c-3.615,2.822-4.161,3.89-4.161,6.093c0,1.672,3.853,4.538,5.705,5.916l0.477,0.354
			c7.419,5.565,8.617,9.133,8.617,15.521C37.417,70.479,28.558,79.041,13.731,79.041z M14.554,51.305
			c-8.326,0-15.36,5.26-15.36,11.486c0,6.521,6.365,11.629,14.49,11.629c10.469,0,16.002-3.904,16.002-11.291
			c0-0.734-0.089-1.482-0.264-2.223c-0.769-3.01-3.506-4.86-7.294-7.424c-0.623-0.422-1.271-0.858-1.936-1.32
			c-1.72-0.549-3.544-0.838-5.423-0.857H14.554z M12.068,9.021c-2.159,0-4.071,0.88-5.532,2.545
			c-2.111,2.407-3.012,6.148-2.471,10.266C5,28.937,10.125,34.428,15.988,34.604l0.282,0.006c2.196,0,4.051-0.793,5.365-2.291
			c1.848-2.107,2.571-5.511,2.036-9.586c-1.005-7.65-5.892-13.542-11.366-13.707L12.068,9.021z"/>
		<path fill="#A5281A" d="M37.26,5l-4.843,5.083h-5.69c4.015,2.3,6.15,7.037,6.15,12.257c0,4.792-2.655,8.654-6.405,11.585
			c-3.659,2.857-4.353,4.056-4.353,6.486c0,2.073,4.373,5.164,6.382,6.672c7,5.25,8.417,8.553,8.417,15.119
			c0,8.19-8.829,16.338-23.186,16.338c-12.592,0-23.219-5.123-23.219-13.313c0-8.317,8.815-16.983,21.408-16.983
			c1.372,0,2.629-0.035,3.932-0.035c-1.724-1.676-3.117-3.121-3.117-5.653c0-1.505,0.48-2.938,1.151-4.226
			c-0.685,0.049-1.383,0.086-2.102,0.086c-10.343,0-16.367-7.267-16.367-16.384C-4.583,13.11,4.583,5,15.583,5
			C21.253,5,37.26,5,37.26,5 M16.27,35.107c5.656,0,8.887-4.899,7.896-12.44C23.158,14.995,18.161,8.701,12.32,8.525
			c-0.084-0.002-0.168-0.004-0.252-0.004c-5.701,0-9.492,5.813-8.499,13.375c1.009,7.671,6.561,13.031,12.404,13.208
			C16.073,35.105,16.172,35.107,16.27,35.107 M13.685,74.92c12.238,0,16.502-5.172,16.502-11.791c0-0.799-0.098-1.58-0.277-2.338
			c-0.957-3.744-4.768-5.797-9.493-9.082c-1.719-0.557-3.611-0.883-5.642-0.904c-0.074,0-0.146,0-0.22,0
			c-8.608,0-15.86,5.555-15.86,11.986C-1.306,69.41,4.981,74.92,13.685,74.92 M39.594,4H37.26H15.583
			C4.308,4-5.583,12.426-5.583,22.032c0,10.235,7.142,17.384,17.367,17.384c0.175,0,0.352-0.002,0.534-0.006
			c-0.387,1.074-0.583,2.127-0.583,3.145c0,2.016,0.795,3.473,1.798,4.678c-0.526,0.007-1.061,0.013-1.613,0.013
			c-13.404,0-22.408,9.299-22.408,17.983c0,8.293,10.186,14.313,24.219,14.313c15.139,0,24.186-8.815,24.186-17.338
			c0-7.306-1.896-10.728-8.817-15.919l-0.479-0.357c-1.505-1.119-5.503-4.095-5.503-5.515c0-1.927,0.325-2.853,3.968-5.698
			c4.442-3.472,6.79-7.75,6.79-12.373c0-4.581-1.535-8.591-4.212-11.257h2.752h0.428l0.297-0.31l4.842-5.083L39.594,4L39.594,4z
			 M16.27,34.107c-0.088,0-0.177-0.002-0.267-0.004c-5.62-0.17-10.54-5.474-11.442-12.337c-0.522-3.974,0.334-7.572,2.351-9.87
			c1.362-1.554,3.146-2.375,5.156-2.375c0.074,0,0.147,0.001,0.222,0.003c5.231,0.157,9.911,5.863,10.885,13.272
			c0.517,3.93-0.164,7.194-1.916,9.191C20.042,33.375,18.317,34.107,16.27,34.107L16.27,34.107z M13.685,73.92
			c-7.845,0-13.99-4.889-13.99-11.129c0-5.854,6.944-10.986,14.86-10.986h0.209c1.803,0.02,3.554,0.293,5.206,0.813
			c0.645,0.447,1.273,0.872,1.879,1.281c3.697,2.5,6.368,4.308,7.092,7.141c0.162,0.686,0.246,1.396,0.246,2.091
			C29.187,70.289,23.971,73.92,13.685,73.92L13.685,73.92z"/>
	</g>
</g>
<g id="Mi7nXZ.tif" display="none">
	
		<image display="inline" overflow="visible" enable-background="new    " width="64" height="64" id="Layer_0" xlink:href="43F2C460.png"  transform="matrix(1 0 0 1 -4.882813e-004 4.882813e-004)">
	</image>
</g>
</svg>
